<?xml version="1.0" standalone="no"?><!DOCTYPE svg PUBLIC "-//W3C//DTD SVG 1.1//EN" "http://www.w3.org/Graphics/SVG/1.1/DTD/svg11.dtd"><svg t="1646362109480" class="icon" viewBox="0 0 1024 1024" version="1.1" xmlns="http://www.w3.org/2000/svg" p-id="5377" xmlns:xlink="http://www.w3.org/1999/xlink" width="48" height="48"><defs><style type="text/css"></style></defs><path d="M649.498 440.142C680.048 483.334 698 536.07 698 593c0 146.356-118.644 265-265 265S168 739.356 168 593 286.644 328 433 328c56.93 0 109.666 17.952 152.858 48.502L704.36 258H573c-24.852 0-45-20.148-45-45S548.148 168 573 168h240a44.866 44.866 0 0 1 31.82 13.18A44.866 44.866 0 0 1 858 213v240c0 24.852-20.148 45-45 45S768 477.852 768 453v-131.36l-118.502 118.502zM433 768c96.65 0 175-78.35 175-175S529.65 418 433 418 258 496.35 258 593s78.35 175 175 175z" p-id="5378"></path></svg>