<?xml version="1.0" standalone="no"?><!DOCTYPE svg PUBLIC "-//W3C//DTD SVG 1.1//EN" "http://www.w3.org/Graphics/SVG/1.1/DTD/svg11.dtd"><svg t="1646362058140" class="icon" viewBox="0 0 1024 1024" version="1.1" xmlns="http://www.w3.org/2000/svg" p-id="3591" xmlns:xlink="http://www.w3.org/1999/xlink" width="48" height="48"><defs><style type="text/css"></style></defs><path d="M469 638.364c-125.414-20.96-221-130-221-261.364C248 230.644 366.644 112 513 112S778 230.644 778 377c0 130.666-94.57 239.244-219 261.02v64.98h83.328c24.854 0 45 20.148 45 45s-20.146 45-45 45H559v74.912c0 24.852-20.148 45-45 45s-45-20.148-45-45V793H382c-24.852 0-45-20.148-45-45s20.148-45 45-45h87v-64.636z m44-86.364c96.65 0 175-78.35 175-175S609.65 202 513 202 338 280.35 338 377s78.35 175 175 175z" p-id="3592"></path></svg>